<?xml version="1.0" encoding="UTF-8"?>
<!DOCTYPE svg PUBLIC "-//W3C//DTD SVG 1.1//EN" "http://www.w3.org/Graphics/SVG/1.1/DTD/svg11.dtd">
<!-- Creator: CorelDRAW Standard 2020 -->
<svg xmlns="http://www.w3.org/2000/svg" xml:space="preserve" width="1827px" height="1088px" version="1.1" style="shape-rendering:geometricPrecision; text-rendering:geometricPrecision; image-rendering:optimizeQuality; fill-rule:evenodd; clip-rule:evenodd"
viewBox="0 0 1648.544 981.834"
 xmlns:xlink="http://www.w3.org/1999/xlink"
 xmlns:xodm="http://www.corel.com/coreldraw/odm/2003">
 <defs>
  <style type="text/css">
   <![CDATA[
    .str0 {stroke:#011B2D;stroke-width:1.066;stroke-miterlimit:22.9256}
    .str1 {stroke:#023256;stroke-width:1.066;stroke-miterlimit:22.9256}
    .str2 {stroke:#023459;stroke-width:1.066;stroke-miterlimit:22.9256}
    .str3 {stroke:#02365D;stroke-width:1.066;stroke-miterlimit:22.9256}
    .str4 {stroke:#023960;stroke-width:1.066;stroke-miterlimit:22.9256}
    .str5 {stroke:#023B64;stroke-width:1.066;stroke-miterlimit:22.9256}
    .str6 {stroke:#023D68;stroke-width:1.066;stroke-miterlimit:22.9256}
    .str7 {stroke:#023F6B;stroke-width:1.066;stroke-miterlimit:22.9256}
    .str8 {stroke:#02416F;stroke-width:1.066;stroke-miterlimit:22.9256}
    .str9 {stroke:#024373;stroke-width:1.066;stroke-miterlimit:22.9256}
    .str10 {stroke:#024576;stroke-width:1.066;stroke-miterlimit:22.9256}
    .str11 {stroke:#03487A;stroke-width:1.066;stroke-miterlimit:22.9256}
    .str12 {stroke:#034A7D;stroke-width:1.066;stroke-miterlimit:22.9256}
    .str13 {stroke:#034C81;stroke-width:1.066;stroke-miterlimit:22.9256}
    .str14 {stroke:#034E85;stroke-width:1.066;stroke-miterlimit:22.9256}
    .str15 {stroke:#035088;stroke-width:1.066;stroke-miterlimit:22.9256}
    .str16 {stroke:#03528C;stroke-width:1.066;stroke-miterlimit:22.9256}
    .str17 {stroke:#035490;stroke-width:1.066;stroke-miterlimit:22.9256}
    .str18 {stroke:#035793;stroke-width:1.066;stroke-miterlimit:22.9256}
    .str19 {stroke:#035997;stroke-width:1.066;stroke-miterlimit:22.9256}
    .str20 {stroke:#035B9A;stroke-width:1.066;stroke-miterlimit:22.9256}
    .fil1 {fill:none}
    .fil0 {fill:#011B2D}
   ]]>
  </style>
 </defs>
 <g id="Warstwa_x0020_1">
  <metadata id="CorelCorpID_0Corel-Layer"/>
  <rect class="fil0 str0" x="0.532" y="0.533" width="1647.478" height="980.769" rx="1.539" ry="0.65"/>
  <g id="_1507402472">
   <path class="fil1 str1" d="M0.533 369.768c5.868,-4.665 11.719,-9.091 17.549,-13.228 34.838,-24.721 68.924,-39.144 103.539,-39.826 67.038,-1.019 134.047,60.877 172.915,116.731 38.869,55.853 49.598,105.666 86.286,133.559 36.686,27.893 99.33,33.868 134.603,-12.487 35.273,-46.355 43.175,-145.038 60.64,-215.683 17.466,-70.645 44.495,-113.252 94.312,-109.794 49.817,3.457 122.421,52.978 166.561,125.234 44.139,72.256 59.815,167.248 139.814,163.891 42.483,-0.336 99.352,-25.342 162.298,-59.171 62.947,-33.828 131.972,-76.48 198.117,-101.956 66.146,-25.477 129.413,-33.779 184.239,-31.994 50.192,1.633 93.307,11.721 126.605,26.205"/>
   <path class="fil1 str2" d="M0.533 377.022c7.452,-5.764 14.856,-11.119 22.2,-15.955 35.34,-23.274 69.272,-34.555 104.459,-35.568 65.989,-1.331 132.702,54.321 173.656,107.758 40.955,53.437 56.153,104.659 92.744,134.835 36.591,30.176 94.576,39.305 126.253,-4.532 31.677,-43.837 37.045,-140.641 52.932,-209.798 15.887,-69.157 42.293,-110.667 90.536,-108.921 48.242,1.745 118.32,46.745 164.6,115.836 46.279,69.09 68.76,162.268 149.975,161.899 45.575,2.501 102.444,-18.554 164.522,-51.819 62.079,-33.264 129.368,-78.741 194.485,-104.788 65.117,-26.047 128.064,-32.665 182.51,-29.772 50.963,2.709 94.479,13.752 128.606,27.948"/>
   <path class="fil1 str3" d="M0.533 384.025c9.055,-6.838 18.015,-13.051 26.851,-18.431 35.842,-21.826 69.62,-29.966 105.379,-31.309 64.94,-1.645 131.356,47.765 174.397,98.785 43.041,51.02 62.707,103.652 99.203,136.11 36.495,32.458 89.82,44.743 117.901,3.424 28.08,-41.32 30.916,-136.244 45.224,-203.913 14.31,-67.67 40.093,-108.083 86.761,-108.049 46.667,0.033 114.22,40.514 162.639,106.438 48.419,65.923 77.706,157.289 160.137,159.908 48.667,5.337 105.535,-11.765 166.745,-44.467 61.211,-32.701 126.763,-81.003 190.853,-107.621 64.089,-26.617 126.715,-31.551 180.781,-27.548 51.699,3.826 95.571,15.825 130.607,29.575"/>
   <path class="fil1 str4" d="M0.533 390.81c10.678,-7.898 21.199,-14.912 31.501,-20.689 36.344,-20.378 69.969,-25.376 106.3,-27.05 63.891,-1.958 130.011,41.208 175.138,89.812 45.127,48.603 69.261,102.645 105.662,137.385 36.399,34.741 85.065,50.181 109.549,11.379 24.484,-38.802 24.786,-131.847 37.517,-198.027 12.731,-66.182 37.89,-105.498 82.984,-107.177 45.094,-1.678 110.12,34.282 160.679,97.04 50.559,62.757 86.652,152.31 170.299,157.916 51.759,8.174 108.626,-4.976 168.968,-37.114 60.342,-32.138 124.159,-83.265 187.22,-110.453 63.062,-27.188 125.368,-30.439 179.054,-25.327 52.394,4.989 96.577,17.941 132.607,31.078"/>
   <path class="fil1 str5" d="M0.533 397.404c12.32,-8.95 24.408,-16.721 36.152,-22.755 36.846,-18.93 70.317,-20.788 107.22,-22.791 62.841,-2.271 128.666,34.652 175.879,80.838 47.213,46.187 75.816,101.638 112.12,138.661 36.304,37.024 80.311,55.619 101.198,19.334 20.888,-36.285 18.657,-127.45 29.809,-192.142 11.153,-64.693 35.69,-102.913 79.209,-106.304 43.519,-3.39 106.019,28.05 158.718,87.641 52.699,59.591 95.597,147.332 180.46,155.925 54.851,11.01 111.719,1.812 171.192,-29.762 59.474,-31.574 121.555,-85.526 183.588,-113.285 62.033,-27.759 124.019,-29.325 177.325,-23.104 53.047,6.19 97.498,20.092 134.608,32.444"/>
   <path class="fil1 str6" d="M0.533 403.827c13.983,-9.998 27.643,-18.49 40.802,-24.65 37.349,-17.484 70.666,-16.2 108.141,-18.533 61.792,-2.585 127.32,28.094 176.62,71.865 49.299,43.77 82.37,100.63 118.579,139.936 36.208,39.306 75.555,61.056 92.846,27.289 17.292,-33.767 12.527,-123.053 22.102,-186.257 9.574,-63.205 33.488,-100.329 75.433,-105.431 41.944,-5.102 101.919,21.818 156.758,78.243 54.838,56.424 104.541,142.353 190.621,153.933 57.943,13.846 114.81,8.601 173.415,-22.41 58.606,-31.01 118.951,-87.787 179.955,-116.117 61.005,-28.329 122.671,-28.212 175.597,-20.882 52.927,7.33 97.116,21.873 135.049,33.201 0.525,0.203 1.04,0.409 1.56,0.613"/>
   <path class="fil1 str7" d="M0.533 410.102c15.665,-11.046 30.905,-20.235 45.453,-26.398 37.85,-16.036 71.014,-11.611 109.061,-14.274 60.742,-2.898 125.975,21.538 177.36,62.892 51.386,41.353 88.925,99.623 125.038,141.211 36.113,41.589 70.801,66.494 84.495,35.245 13.696,-31.25 6.398,-118.656 14.394,-180.372 7.997,-61.717 31.287,-97.745 71.657,-104.558 40.37,-6.814 97.819,15.585 154.798,68.843 56.978,53.259 113.487,137.374 200.782,151.942 61.036,16.683 117.902,15.39 175.639,-15.057 57.738,-30.447 116.347,-90.049 176.323,-118.949 59.977,-28.901 121.322,-27.099 173.868,-18.66 52.548,8.439 96.296,23.516 134.943,33.776 1.237,0.447 2.456,0.899 3.667,1.352"/>
   <path class="fil1 str8" d="M0.533 416.243c17.366,-12.094 34.194,-21.96 50.104,-28.011 38.351,-14.589 71.362,-7.022 109.98,-10.016 59.694,-3.211 124.631,14.982 178.102,53.918 53.472,38.937 95.48,98.617 131.497,142.488 36.017,43.871 66.045,71.931 76.144,43.199 10.098,-28.732 0.268,-114.258 6.686,-174.487 6.418,-60.229 29.086,-95.159 67.881,-103.685 38.795,-8.526 93.718,9.353 152.837,59.445 59.118,50.092 122.432,132.396 210.945,149.951 64.126,19.518 120.992,22.178 177.861,-7.705 56.87,-29.884 113.743,-92.311 172.691,-121.782 58.949,-29.47 119.973,-25.985 172.14,-16.437 52.167,9.548 95.476,25.159 134.837,34.35 1.955,0.656 3.878,1.316 5.773,1.983"/>
   <path class="fil1 str9" d="M0.533 422.267c19.083,-13.144 37.509,-23.676 54.754,-29.508 38.854,-13.141 71.711,-2.433 110.902,-5.757 58.644,-3.524 123.284,8.426 178.842,44.945 55.559,36.52 102.034,97.61 137.955,143.763 35.922,46.153 61.291,77.369 67.793,51.154 6.503,-26.214 -5.862,-109.86 -1.022,-168.601 4.84,-58.741 26.885,-92.575 64.106,-102.812 37.221,-10.238 89.618,3.121 150.876,50.046 61.258,46.925 131.378,127.417 221.106,147.959 67.219,22.355 124.085,28.968 180.085,-0.352 56.002,-29.32 111.138,-94.572 169.059,-124.614 57.92,-30.041 118.624,-24.872 170.411,-14.215 51.787,10.657 94.656,26.802 134.731,34.925 2.678,0.825 5.303,1.655 7.88,2.492"/>
   <path class="fil1 str10" d="M0.533 428.183c20.815,-14.191 40.849,-25.383 59.405,-30.896 39.356,-11.694 72.059,2.155 111.821,-1.499 57.595,-3.837 121.94,1.869 179.584,35.972 57.644,34.103 108.588,96.603 144.414,145.038 35.826,48.437 56.535,82.808 59.441,59.11 2.906,-23.697 -11.991,-105.464 -8.73,-162.716 3.262,-57.253 24.684,-89.991 60.331,-101.94 35.646,-11.95 85.517,-3.111 148.915,40.648 63.398,43.759 140.323,122.438 231.268,145.967 70.31,25.192 127.176,35.757 182.308,7 55.133,-28.756 108.534,-96.833 165.426,-127.445 56.892,-30.612 117.277,-23.76 168.683,-11.993 51.408,11.766 93.837,28.446 134.625,35.5 3.405,0.953 6.73,1.907 9.987,2.863"/>
   <path class="fil1 str11" d="M0.533 434.004c22.562,-15.239 44.214,-27.09 64.055,-32.19 39.858,-10.246 72.409,6.744 112.742,2.761 56.546,-4.152 120.595,-4.688 180.325,26.998 59.73,31.686 115.142,95.596 150.873,146.314 35.73,50.718 51.78,88.245 51.089,67.065 -0.69,-21.18 -18.121,-101.067 -16.437,-156.832 1.684,-55.764 22.482,-87.405 56.554,-101.067 34.072,-13.661 81.417,-9.342 146.955,31.25 65.538,40.593 149.268,117.459 241.429,143.976 73.403,28.028 130.268,42.545 184.533,14.352 54.264,-28.192 105.929,-99.095 161.793,-130.278 55.864,-31.183 115.928,-22.645 166.955,-9.77 51.026,12.875 93.017,30.089 134.518,36.075 4.13,1.036 8.157,2.061 12.094,3.076"/>
   <path class="fil1 str12" d="M0.533 439.739c24.32,-16.284 47.602,-28.797 68.706,-33.398 40.36,-8.798 72.757,11.333 113.662,7.02 55.497,-4.465 119.249,-11.245 181.066,18.025 61.816,29.269 121.696,94.589 157.332,147.589 35.634,53.001 47.024,93.683 42.738,75.02 -4.287,-18.662 -24.251,-96.67 -24.145,-150.946 0.105,-54.276 20.28,-84.821 52.778,-100.194 32.497,-15.374 77.317,-15.575 144.994,21.851 67.678,37.427 158.214,112.479 251.591,141.984 76.495,30.864 133.359,49.334 186.756,21.705 53.396,-27.629 103.325,-101.357 158.16,-133.11 54.837,-31.754 114.58,-21.532 165.227,-7.548 50.647,13.984 92.198,31.732 134.412,36.65 4.851,1.072 9.579,2.11 14.201,3.117"/>
   <path class="fil1 str13" d="M0.533 445.392c26.09,-17.327 51.012,-30.504 73.356,-34.523 40.863,-7.351 73.106,15.921 114.583,11.278 54.447,-4.778 117.904,-17.801 181.807,9.052 63.903,26.852 128.25,93.582 163.79,148.865 35.539,55.283 42.27,99.12 34.387,82.975 -7.883,-16.145 -30.381,-92.273 -31.853,-145.061 -1.473,-52.788 18.079,-82.237 49.003,-99.322 30.923,-17.085 73.216,-21.806 143.034,12.453 69.817,34.26 167.158,107.501 261.751,139.992 79.587,33.701 136.452,56.123 188.98,29.058 52.528,-27.065 100.721,-103.619 154.528,-135.943 53.808,-32.323 113.231,-20.418 163.498,-5.325 50.267,15.093 91.378,33.376 134.307,37.224 5.564,1.059 10.994,2.046 16.307,2.97"/>
   <path class="fil1 str14" d="M0.533 450.976c27.869,-18.364 54.443,-32.217 78.007,-35.58 41.364,-5.903 73.454,20.511 115.503,15.537 53.398,-5.091 116.559,-24.358 182.548,0.078 65.988,24.436 134.805,92.576 170.249,150.141 35.443,57.566 37.514,104.558 26.035,90.93 -11.479,-13.627 -36.51,-87.875 -39.561,-139.176 -3.05,-51.3 15.879,-79.651 45.227,-98.448 29.349,-18.797 69.116,-28.039 141.074,3.054 71.957,31.093 176.104,102.522 271.913,138.001 82.679,36.537 139.543,62.911 191.203,36.409 51.66,-26.501 98.117,-105.879 150.896,-138.774 52.779,-32.894 111.883,-19.306 161.77,-3.103 49.886,16.202 90.558,35.019 134.2,37.799 6.266,0.993 12.399,1.859 18.414,2.615"/>
   <path class="fil1 str15" d="M0.533 456.491c29.656,-19.396 57.894,-33.931 82.658,-36.567 41.865,-4.456 73.802,25.099 116.423,19.795 52.348,-5.404 115.213,-30.914 183.289,-8.895 68.074,22.019 141.359,91.569 176.708,151.416 35.347,59.849 32.759,109.996 17.684,98.886 -15.077,-11.111 -42.64,-83.479 -47.269,-133.291 -4.629,-49.812 13.677,-77.067 41.451,-97.576 27.774,-20.509 65.016,-34.271 139.113,-6.344 74.097,27.927 185.049,97.543 282.075,136.01 85.771,39.372 142.634,69.699 193.426,43.761 50.791,-25.938 95.512,-108.141 147.263,-141.606 51.752,-33.466 110.535,-18.193 160.042,-0.881 49.507,17.311 89.738,36.662 134.094,38.374 6.955,0.874 13.789,1.544 20.521,2.04"/>
   <path class="fil1 str16" d="M0.533 461.944c31.451,-20.42 61.364,-35.651 87.308,-37.493 42.368,-3.009 74.15,29.688 117.344,24.054 51.299,-5.718 113.868,-37.471 184.03,-17.868 70.161,19.602 147.913,90.56 183.166,152.691 35.253,62.131 28.005,115.434 9.332,106.84 -18.672,-8.592 -48.769,-79.081 -54.976,-127.405 -6.207,-48.323 11.476,-74.482 37.676,-96.703 26.199,-22.22 60.915,-40.503 137.152,-15.742 76.237,24.76 193.995,92.563 292.236,134.017 88.863,42.21 145.726,76.489 195.65,51.114 49.924,-25.374 92.908,-110.402 143.631,-144.438 50.724,-34.036 109.186,-17.079 158.313,1.341 49.127,18.421 88.919,38.306 133.988,38.949 7.624,0.699 15.162,1.094 22.628,1.231"/>
   <path class="fil1 str17" d="M0.533 467.342c33.252,-21.436 64.853,-37.377 91.959,-38.363 42.87,-1.561 74.498,34.276 118.264,28.312 50.25,-6.03 112.523,-44.027 184.771,-26.841 72.247,17.186 154.468,89.554 189.625,153.967 35.157,64.413 23.249,120.871 0.981,114.796 -22.269,-6.076 -54.899,-74.684 -62.684,-121.52 -7.785,-46.836 9.275,-71.898 33.9,-95.831 24.624,-23.932 56.814,-46.735 135.191,-25.141 78.377,21.594 202.94,87.585 302.398,132.026 91.955,45.046 148.818,83.277 197.873,58.467 49.056,-24.811 90.304,-112.664 139.999,-147.271 49.695,-34.607 107.837,-15.966 156.584,3.564 48.747,19.529 88.1,39.949 133.882,39.523 8.272,0.468 16.515,0.504 24.735,0.177"/>
   <path class="fil1 str18" d="M0.533 472.685c35.058,-22.442 68.358,-39.105 96.609,-39.178 43.372,-0.114 74.848,38.864 119.185,32.571 49.201,-6.344 111.178,-50.584 185.512,-35.815 74.333,14.769 161.022,88.547 196.083,155.242 35.061,66.696 18.495,126.31 -7.37,122.751 -25.865,-3.557 -61.029,-70.287 -70.391,-115.635 -9.364,-45.347 7.072,-69.313 30.123,-94.958 23.051,-25.644 52.715,-52.967 133.231,-34.539 80.517,18.428 211.885,82.606 312.559,130.034 95.047,47.883 151.91,90.066 200.097,65.819 48.187,-24.246 87.7,-114.926 136.366,-150.103 48.667,-35.176 106.49,-14.852 154.856,5.786 48.368,20.639 87.281,41.593 133.777,40.099 8.892,0.181 17.842,-0.232 26.841,-1.133"/>
   <path class="fil1 str19" d="M0.533 477.977c36.869,-23.438 71.879,-40.837 101.26,-39.943 43.874,1.334 75.196,43.454 120.105,36.83 48.151,-6.658 109.832,-57.14 186.252,-44.788 76.419,12.352 167.577,87.54 202.543,156.518 34.965,68.978 13.739,131.747 -15.722,130.706 -29.462,-1.041 -67.158,-65.89 -78.099,-109.75 -10.942,-43.86 4.872,-66.729 26.348,-94.085 21.476,-27.356 48.614,-59.199 131.27,-43.938 82.656,15.261 220.831,77.627 322.721,128.043 98.139,50.718 155.001,96.855 202.32,73.171 47.319,-23.684 85.095,-117.187 132.734,-152.935 47.639,-35.748 105.141,-13.739 153.128,8.008 47.987,21.748 86.46,43.236 133.67,40.674 9.484,-0.164 19.145,-1.115 28.948,-2.704"/>
   <path class="fil1 str20" d="M0.533 483.222c38.683,-24.424 75.416,-42.573 105.911,-40.661 44.376,2.781 75.544,48.043 121.025,41.088 47.102,-6.97 108.487,-63.697 186.993,-53.761 78.506,9.936 174.132,86.533 209.001,157.793 34.871,71.262 8.985,137.185 -24.073,138.662 -33.057,1.477 -73.287,-61.493 -85.807,-103.865 -12.519,-42.371 2.671,-64.144 22.573,-93.212 19.901,-29.068 44.513,-65.432 129.31,-53.336 84.796,12.095 229.775,72.647 332.882,126.051 101.231,53.555 158.092,103.643 204.543,80.523 46.451,-23.12 82.491,-119.449 129.102,-155.767 46.611,-36.318 103.792,-12.626 151.399,10.231 47.607,22.857 85.641,44.879 133.564,41.248 10.044,-0.565 20.419,-2.148 31.055,-4.542"/>
  </g>
 </g>
</svg>
